<svg xmlns="http://www.w3.org/2000/svg" version="1.1" xmlns:xlink="http://www.w3.org/1999/xlink" xmlns:svgjs="http://svgjs.dev/svgjs" width="1500" height="1500" viewBox="0 0 1500 1500"><rect width="1500" height="1500" fill="#f9f9f9"></rect><g transform="matrix(0.6666666666666666,0,0,0.6666666666666666,249.39393939393938,637.2865845633186)"><svg viewBox="0 0 396 89" data-background-color="#f9f9f9" preserveAspectRatio="xMidYMid meet" height="337" width="1500" xmlns="http://www.w3.org/2000/svg" xmlns:xlink="http://www.w3.org/1999/xlink"><g id="tight-bounds" transform="matrix(1,0,0,1,0.2400000000000091,0.15056664924912866)"><svg viewBox="0 0 395.52 88.69886670150173" height="88.69886670150173" width="395.52"><g><svg viewBox="0 0 665.5755441952766 149.26121681420994" height="88.69886670150173" width="395.52"><g transform="matrix(1,0,0,1,270.05554419527664,0)"><svg viewBox="0 0 395.52 149.26121681420994" height="149.26121681420994" width="395.52"><g id="textblocktransform"><svg viewBox="0 0 395.52 149.26121681420994" height="149.26121681420994" width="395.52" id="textblock"><g><svg viewBox="0 0 395.52 108.54209744013211" height="108.54209744013211" width="395.52"><g transform="matrix(1,0,0,1,0,0)"><svg width="395.52" viewBox="2.65 -38.7 181.63 49.85" height="108.54209744013211" data-palette-color="#030303"><path d="M27.55-11.1L30.65-11.1 30.65 0 2.65 0 2.65-2.75 3.2-2.75Q5.05-2.75 6.25-3.1 7.45-3.45 7.45-4.55L7.45-4.55 7.45-31Q7.45-32.1 6.25-32.45 5.05-32.8 3.2-32.8L3.2-32.8 2.65-32.8 2.65-35.5 29.4-35.5 29.4-25.65 26.4-25.65 25.85-30.3Q25.75-31.2 25.1-31.68 24.45-32.15 23.1-32.33 21.75-32.5 19.6-32.5L19.6-32.5 12.05-32.5 12.05-3.05 20.7-3.05Q22.3-3.05 23.48-3.13 24.65-3.2 25.4-3.45 26.15-3.7 26.53-4.15 26.9-4.6 26.95-5.25L26.95-5.25 27.55-11.1ZM10.9-16.85L10.9-19.6Q13.15-19.75 15.4-19.83 17.65-19.9 19.9-20 22.15-20.1 24.4-20.2L24.4-20.2 24.4-16.25Q22.15-16.35 19.9-16.45 17.65-16.55 15.4-16.65 13.15-16.75 10.9-16.85L10.9-16.85ZM36.2-37.9L45-37.9 45-4.95Q45-3.4 46.15-2.9 47.3-2.4 49.25-2.4L49.25-2.4 49.4-2.4 49.4 0 36.2 0 36.2-2.4 36.4-2.4Q38.35-2.4 39.47-2.9 40.6-3.4 40.6-4.95L40.6-4.95 40.6-32.95Q40.6-33.7 40.17-34.08 39.75-34.45 38.9-34.7 38.05-34.95 36.7-35.2L36.7-35.2 36.2-35.3 36.2-37.9ZM52.9-37.9L61.7-37.9 61.7-4.95Q61.7-3.4 62.85-2.9 64-2.4 65.95-2.4L65.95-2.4 66.1-2.4 66.1 0 52.9 0 52.9-2.4 53.1-2.4Q55.05-2.4 56.17-2.9 57.3-3.4 57.3-4.95L57.3-4.95 57.3-32.95Q57.3-33.7 56.87-34.08 56.45-34.45 55.6-34.7 54.75-34.95 53.4-35.2L53.4-35.2 52.9-35.3 52.9-37.9ZM75.74-32.35L75.74-32.35Q74.29-32.35 73.39-33.15 72.49-33.95 72.49-35.55L72.49-35.55Q72.49-37.1 73.39-37.9 74.29-38.7 75.74-38.7L75.74-38.7Q77.14-38.7 78.07-37.9 78.99-37.1 78.99-35.55L78.99-35.55Q78.99-33.95 78.07-33.15 77.14-32.35 75.74-32.35ZM69.49-26.85L78.29-26.85 78.29-4.95Q78.29-3.4 79.44-2.9 80.59-2.4 82.54-2.4L82.54-2.4 82.69-2.4 82.69 0 69.49 0 69.49-2.4 69.64-2.4Q71.59-2.4 72.74-2.9 73.89-3.4 73.89-4.95L73.89-4.95 73.89-21.9Q73.89-23 72.94-23.38 71.99-23.75 69.99-24.15L69.99-24.15 69.49-24.25 69.49-26.85ZM100.09 8.75L100.09 11.15 86.24 11.15 86.24 8.75 86.39 8.75Q87.64 8.75 88.57 8.53 89.49 8.3 89.99 7.68 90.49 7.05 90.49 5.95L90.49 5.95 90.49-21.9Q90.49-22.65 90.07-23.03 89.64-23.4 88.77-23.65 87.89-23.9 86.59-24.15L86.59-24.15 86.09-24.25 86.09-26.85 94.09-26.85 94.69-20.65 94.94-20.35 94.94 8.25Q94.94 8.4 95.59 8.53 96.24 8.65 97.14 8.7 98.04 8.75 98.74 8.75L98.74 8.75 100.09 8.75ZM103.74 0.55L103.74 0.55Q101.54 0.55 99.82-0.2 98.09-0.95 96.67-2.38 95.24-3.8 93.99-5.85L93.99-5.85 94.14-9.1Q95.44-6.9 96.84-5.45 98.24-4 99.89-3.25 101.54-2.5 103.49-2.5L103.49-2.5Q105.44-2.5 106.94-3.23 108.44-3.95 109.42-5.38 110.39-6.8 110.89-8.85 111.39-10.9 111.39-13.55L111.39-13.55Q111.39-16.15 110.94-18.13 110.49-20.1 109.57-21.48 108.64-22.85 107.19-23.55 105.74-24.25 103.79-24.25L103.79-24.25Q101.74-24.25 100.04-23.53 98.34-22.8 96.89-21.33 95.44-19.85 94.09-17.65L94.09-17.65 93.99-20.75Q95.34-22.85 96.79-24.33 98.24-25.8 100.07-26.58 101.89-27.35 104.24-27.35L104.24-27.35Q107.99-27.35 110.64-25.6 113.29-23.85 114.69-20.78 116.09-17.7 116.09-13.55L116.09-13.55Q116.09-9.45 114.64-6.28 113.19-3.1 110.42-1.28 107.64 0.55 103.74 0.55ZM137.69-7.05L137.69-7.05Q137.69-8.25 137.11-9.05 136.54-9.85 135.54-10.35 134.54-10.85 133.26-11.18 131.99-11.5 130.64-11.8L130.64-11.8Q128.99-12.2 127.39-12.7 125.79-13.2 124.49-14.05 123.19-14.9 122.41-16.28 121.64-17.65 121.64-19.7L121.64-19.7Q121.64-22 122.79-23.73 123.94-25.45 126.14-26.4 128.34-27.35 131.44-27.35L131.44-27.35Q133.89-27.35 135.71-27.05 137.54-26.75 138.76-26.35 139.99-25.95 140.59-25.6L140.59-25.6 140.59-19.3 136.19-19.3 136.19-24.5Q136.69-24.5 137.06-24.35 137.44-24.2 137.66-23.93 137.89-23.65 138.01-23.2 138.14-22.75 138.09-22.2L138.09-22.2Q137.49-22.9 136.49-23.4 135.49-23.9 134.21-24.13 132.94-24.35 131.44-24.35L131.44-24.35Q128.49-24.35 127.11-23.25 125.74-22.15 125.74-20.25L125.74-20.25Q125.74-19 126.31-18.2 126.89-17.4 127.89-16.9 128.89-16.4 130.21-16.03 131.54-15.65 132.99-15.35L132.99-15.35Q134.59-15 136.19-14.48 137.79-13.95 139.06-13.1 140.34-12.25 141.11-10.9 141.89-9.55 141.89-7.5L141.89-7.5Q141.89-5.15 140.69-3.33 139.49-1.5 137.14-0.48 134.79 0.55 131.34 0.55L131.34 0.55Q128.84 0.55 126.86 0.23 124.89-0.1 123.36-0.68 121.84-1.25 120.74-1.9L120.74-1.9 120.74-8.45 125.24-8.45 125.24-1.55Q124.44-1.95 124.01-2.35 123.59-2.75 123.44-3.15 123.29-3.55 123.29-4 123.29-4.45 123.39-4.9L123.39-4.9Q124.19-4.15 125.36-3.6 126.54-3.05 128.04-2.73 129.54-2.4 131.34-2.4L131.34-2.4Q133.44-2.4 134.84-2.93 136.24-3.45 136.96-4.48 137.69-5.5 137.69-7.05ZM152.49-32.35L152.49-32.35Q151.04-32.35 150.14-33.15 149.24-33.95 149.24-35.55L149.24-35.55Q149.24-37.1 150.14-37.9 151.04-38.7 152.49-38.7L152.49-38.7Q153.89-38.7 154.81-37.9 155.74-37.1 155.74-35.55L155.74-35.55Q155.74-33.95 154.81-33.15 153.89-32.35 152.49-32.35ZM146.24-26.85L155.04-26.85 155.04-4.95Q155.04-3.4 156.19-2.9 157.34-2.4 159.29-2.4L159.29-2.4 159.44-2.4 159.44 0 146.24 0 146.24-2.4 146.39-2.4Q148.34-2.4 149.49-2.9 150.64-3.4 150.64-4.95L150.64-4.95 150.64-21.9Q150.64-23 149.69-23.38 148.74-23.75 146.74-24.15L146.74-24.15 146.24-24.25 146.24-26.85ZM180.08-7.05L180.08-7.05Q180.08-8.25 179.51-9.05 178.93-9.85 177.93-10.35 176.93-10.85 175.66-11.18 174.38-11.5 173.03-11.8L173.03-11.8Q171.38-12.2 169.78-12.7 168.18-13.2 166.88-14.05 165.58-14.9 164.81-16.28 164.03-17.65 164.03-19.7L164.03-19.7Q164.03-22 165.18-23.73 166.33-25.45 168.53-26.4 170.73-27.35 173.83-27.35L173.83-27.35Q176.28-27.35 178.11-27.05 179.93-26.75 181.16-26.35 182.38-25.95 182.98-25.6L182.98-25.6 182.98-19.3 178.58-19.3 178.58-24.5Q179.08-24.5 179.46-24.35 179.83-24.2 180.06-23.93 180.28-23.65 180.41-23.2 180.53-22.75 180.48-22.2L180.48-22.2Q179.88-22.9 178.88-23.4 177.88-23.9 176.61-24.13 175.33-24.35 173.83-24.35L173.83-24.35Q170.88-24.35 169.51-23.25 168.13-22.15 168.13-20.25L168.13-20.25Q168.13-19 168.71-18.2 169.28-17.4 170.28-16.9 171.28-16.4 172.61-16.03 173.93-15.65 175.38-15.35L175.38-15.35Q176.98-15 178.58-14.48 180.18-13.95 181.46-13.1 182.73-12.25 183.51-10.9 184.28-9.55 184.28-7.5L184.28-7.5Q184.28-5.15 183.08-3.33 181.88-1.5 179.53-0.48 177.18 0.55 173.73 0.55L173.73 0.55Q171.23 0.55 169.26 0.23 167.28-0.1 165.76-0.68 164.23-1.25 163.13-1.9L163.13-1.9 163.13-8.45 167.63-8.45 167.63-1.55Q166.83-1.95 166.41-2.35 165.98-2.75 165.83-3.15 165.68-3.55 165.68-4 165.68-4.45 165.78-4.9L165.78-4.9Q166.58-4.15 167.76-3.6 168.93-3.05 170.43-2.73 171.93-2.4 173.73-2.4L173.73-2.4Q175.83-2.4 177.23-2.93 178.63-3.45 179.36-4.48 180.08-5.5 180.08-7.05Z" opacity="1" transform="matrix(1,0,0,1,0,0)" fill="#030303" class="wordmark-text-0" data-fill-palette-color="primary" id="text-0"></path></svg></g></svg></g><g transform="matrix(1,0,0,1,0,134.16628163540875)"><svg viewBox="0 0 338.1696 15.094935178801215" height="15.094935178801215" width="338.1696"><g transform="matrix(1,0,0,1,0,0)"><svg width="338.1696" viewBox="1.56 -37.5 1080.6784057971015 48.24" height="15.094935178801215" data-palette-color="#030303"><path d="M28.61-35.55L7.74-35.55 7.03-31.62 15.14-31.62 10.33-3.91 2.25-3.91 1.56 0 22.44 0 23.12-3.91 14.84-3.91 19.65-31.62 27.91-31.62 28.61-35.55ZM32.42-13.26L32.42-13.26 32.37-12.74Q32.22-11.3 32.3-9.79 32.37-8.28 32.71-6.84L32.71-6.84Q33.05-5.37 33.68-4.06 34.3-2.76 35.28-1.76L35.28-1.76Q36.23-0.76 37.56-0.16 38.89 0.44 40.6 0.49L40.6 0.49Q41.97 0.51 43.2 0.22 44.43-0.07 45.53-0.68L45.53-0.68Q46.24-1.07 46.91-1.6 47.58-2.12 48.19-2.78L48.19-2.78 47.73 0 51.73 0 58.25-37.5 53.83-37.5 51.29-23.78Q50.8-24.41 50.24-24.9 49.68-25.39 49.07-25.76L49.07-25.76Q48.09-26.32 46.98-26.6 45.87-26.88 44.65-26.9L44.65-26.9Q42.77-26.95 41.18-26.42 39.6-25.88 38.33-24.9L38.33-24.9Q37.03-23.93 36.02-22.61 35.01-21.29 34.27-19.75L34.27-19.75Q33.54-18.21 33.08-16.55 32.61-14.89 32.42-13.26ZM36.77-12.74L36.77-12.74 36.84-13.26Q37.06-15.01 37.68-16.78 38.3-18.55 39.35-20L39.35-20Q40.4-21.41 41.92-22.29 43.43-23.17 45.48-23.1L45.48-23.1Q46.41-23.07 47.2-22.81 48-22.56 48.65-22.09L48.65-22.09Q49.31-21.63 49.81-20.96 50.31-20.29 50.68-19.43L50.68-19.43 48.56-7.1Q48.02-6.37 47.41-5.73 46.8-5.08 46.12-4.59L46.12-4.59Q45.24-3.98 44.19-3.64 43.14-3.3 41.92-3.34L41.92-3.34Q40.67-3.37 39.77-3.81 38.86-4.25 38.25-4.98L38.25-4.98Q37.64-5.69 37.3-6.62 36.96-7.54 36.81-8.59L36.81-8.59Q36.64-9.62 36.64-10.69 36.64-11.77 36.77-12.74ZM71.87 0.49L71.87 0.49Q74.95 0.54 77.84-0.74 80.73-2.03 82.54-4.57L82.54-4.57 80-6.71Q78.44-5.1 76.5-4.13 74.56-3.15 72.26-3.22L72.26-3.22Q70.48-3.27 69.18-4.03 67.89-4.79 67.11-6.01L67.11-6.01Q66.33-7.23 66.02-8.76 65.72-10.3 65.91-11.91L65.91-11.91 84.1-11.91 84.42-13.94Q84.74-16.38 84.37-18.69 84-21 82.91-22.8L82.91-22.8Q81.81-24.61 79.93-25.72 78.05-26.83 75.31-26.9L75.31-26.9Q73.43-26.95 71.74-26.44 70.04-25.93 68.6-25L68.6-25Q67.13-24.05 65.95-22.75 64.77-21.46 63.89-19.92L63.89-19.92Q62.98-18.38 62.42-16.69 61.86-14.99 61.66-13.26L61.66-13.26 61.54-12.21Q61.32-9.67 61.9-7.4 62.47-5.13 63.79-3.39L63.79-3.39Q65.11-1.66 67.15-0.61 69.18 0.44 71.87 0.49ZM75.09-23.19L75.09-23.19Q76.53-23.14 77.61-22.52 78.68-21.9 79.37-20.9L79.37-20.9Q80.05-19.9 80.29-18.63 80.54-17.36 80.32-16.02L80.32-16.02 80.22-15.58 66.45-15.63Q66.96-17.04 67.74-18.43 68.53-19.82 69.6-20.9L69.6-20.9Q70.65-21.97 72.02-22.62 73.38-23.27 75.09-23.19ZM94.18-26.42L89.59 0 94.01 0 97.31-18.97Q97.97-19.85 98.76-20.62 99.55-21.39 100.46-21.95L100.46-21.95Q101.36-22.49 102.4-22.79 103.43-23.1 104.58-23.07L104.58-23.07Q106.05-23.05 107-22.55 107.95-22.05 108.49-21.19L108.49-21.19Q109-20.34 109.14-19.19 109.27-18.04 109.12-16.7L109.12-16.7 106.32 0 110.73 0 113.49-16.5Q113.79-18.51 113.47-20.47 113.15-22.44 112.27-23.83L112.27-23.83Q111.37-25.2 109.86-26.03 108.34-26.86 106.12-26.9L106.12-26.9Q104.8-26.93 103.61-26.62 102.41-26.32 101.34-25.73L101.34-25.73Q100.26-25.15 99.31-24.32 98.36-23.49 97.55-22.51L97.55-22.51 98.11-26.44 94.18-26.42ZM133.93-26.42L135.05-32.81 130.61-32.81 129.48-26.42 122.77-26.42 122.16-22.92 128.9-22.92 126.5-8.57Q126.33-6.76 126.64-5.14 126.94-3.52 127.77-2.29L127.77-2.29Q128.6-1.05 129.97-0.31 131.34 0.44 133.32 0.46L133.32 0.46Q135.05 0.51 136.93 0.24 138.81-0.02 140.35-0.88L140.35-0.88 139.93-4.13Q138.61-3.83 137.28-3.59 135.95-3.34 134.61-3.39L134.61-3.39Q133.44-3.42 132.67-3.83 131.9-4.25 131.48-4.93L131.48-4.93Q131.07-5.62 130.93-6.54 130.8-7.47 130.92-8.54L130.92-8.54 133.32-22.92 143.08-22.92 143.69-26.42 133.93-26.42ZM166.69-26.42L153.55-26.42 152.87-22.49 161.58-22.49 158.36-3.91 149.67-3.91 148.96 0 170.45 0 171.15-3.91 162.78-3.91 166.69-26.42ZM162.9-33.28L162.9-33.28Q162.9-32.1 163.65-31.41 164.39-30.71 165.54-30.76L165.54-30.76Q166.71-30.81 167.44-31.53 168.18-32.25 168.18-33.42L168.18-33.42Q168.18-34.62 167.44-35.35 166.71-36.08 165.56-36.04L165.56-36.04Q164.39-35.99 163.66-35.22 162.93-34.45 162.9-33.28ZM192.61-26.42L193.74-32.81 189.29-32.81 188.17-26.42 181.45-26.42 180.84-22.92 187.58-22.92 185.19-8.57Q185.02-6.76 185.32-5.14 185.63-3.52 186.46-2.29L186.46-2.29Q187.29-1.05 188.66-0.31 190.02 0.44 192 0.46L192 0.46Q193.74 0.51 195.61 0.24 197.49-0.02 199.03-0.88L199.03-0.88 198.62-4.13Q197.3-3.83 195.97-3.59 194.64-3.34 193.3-3.39L193.3-3.39Q192.12-3.42 191.35-3.83 190.59-4.25 190.17-4.93L190.17-4.93Q189.76-5.62 189.62-6.54 189.49-7.47 189.61-8.54L189.61-8.54 192-22.92 201.77-22.92 202.38-26.42 192.61-26.42ZM218.51-6.23L218-9.16 213.87-26.42 209.16-26.42 215.78-1.51 213.26 2.29Q212.8 3 212.26 3.8 211.73 4.59 211.07 5.25L211.07 5.25Q210.41 5.91 209.6 6.35 208.8 6.79 207.84 6.81L207.84 6.81Q207.33 6.81 206.79 6.74 206.26 6.67 205.72 6.62L205.72 6.62 204.72 10.35Q205.43 10.47 206.15 10.61 206.87 10.74 207.58 10.74L207.58 10.74Q209.16 10.74 210.52 10.19 211.87 9.64 213.02 8.69L213.02 8.69Q214.14 7.76 215.07 6.57 216 5.37 216.73 4.1L216.73 4.1 234.99-26.42 229.84-26.42 218.51-6.23ZM265.77-8.94L265.77-8.94Q265.48-4.71 268.12-2.15 270.75 0.42 274.83 0.46L274.83 0.46Q277.27 0.51 279.43-0.34 281.59-1.2 283.5-2.64L283.5-2.64 284.99 0 289.92 0 286.67-5.74Q288.84-7.96 290.05-10.63 291.26-13.31 291.58-16.41L291.58-16.41 287.67-16.41Q287.33-14.33 286.6-12.5 285.87-10.67 284.65-8.96L284.65-8.96 279.03-18.63 281.81-20.75Q283.89-22.27 285.71-24.08 287.53-25.9 287.67-28.71L287.67-28.71Q287.87-31.74 285.98-33.85 284.08-35.96 281.06-36.06L281.06-36.06Q277-36.16 274.45-33.67 271.9-31.18 271.61-27.32L271.61-27.32Q271.54-26.22 271.69-25.18 271.85-24.15 272.17-23.14L272.17-23.14Q272.46-22.14 272.9-21.17 273.34-20.19 273.81-19.24L273.81-19.24 272.88-18.63Q271.68-17.85 270.55-16.96 269.41-16.06 268.48-15.01L268.48-15.01Q267.36-13.75 266.64-12.26 265.92-10.77 265.77-8.94ZM274.98-3.2L274.98-3.2Q272.46-3.25 271.19-4.87 269.92-6.49 270.22-8.91L270.22-8.91Q270.36-9.94 270.83-10.88 271.29-11.82 271.97-12.65L271.97-12.65Q272.63-13.48 273.43-14.2 274.22-14.92 275-15.53L275-15.53 275.76-16.14 281.62-5.64Q280.13-4.61 278.48-3.88 276.83-3.15 274.98-3.2ZM275.93-27.37L275.93-27.37Q276.12-29.25 277.38-30.83 278.64-32.42 280.76-32.37L280.76-32.37Q282.25-32.37 282.92-31.23 283.6-30.08 283.45-28.74L283.45-28.74Q283.3-27.15 282.42-26.03 281.54-24.9 280.32-24L280.32-24 277.2-21.75Q276.91-22.41 276.63-23.1 276.34-23.78 276.17-24.49L276.17-24.49Q275.98-25.17 275.91-25.9 275.83-26.64 275.93-27.37ZM344.04-9.18L344.04-9.18Q343.87-7.71 343.14-6.6 342.4-5.49 341.31-4.76L341.31-4.76Q340.21-4.03 338.86-3.67 337.52-3.32 336.15-3.34L336.15-3.34Q334.59-3.37 333.36-3.89 332.13-4.42 331.27-5.32L331.27-5.32Q330.39-6.23 329.89-7.48 329.39-8.74 329.32-10.28L329.32-10.28 324.85-10.28Q324.8-7.89 325.66-5.91 326.51-3.93 328.05-2.54L328.05-2.54Q329.56-1.12 331.6-0.33 333.64 0.46 335.98 0.49L335.98 0.49Q338.18 0.54 340.38-0.07 342.58-0.68 344.36-1.93L344.36-1.93Q346.14-3.15 347.31-4.99 348.48-6.84 348.65-9.23L348.65-9.23Q348.8-11.43 348.03-13.12 347.26-14.82 345.92-16.11L345.92-16.11Q344.58-17.41 342.83-18.35 341.09-19.29 339.28-19.95L339.28-19.95Q338.18-20.34 337.02-20.85 335.86-21.36 334.93-22.09L334.93-22.09Q333.98-22.8 333.43-23.8 332.88-24.8 333.03-26.22L333.03-26.22Q333.18-27.64 333.87-28.75 334.57-29.86 335.62-30.64L335.62-30.64Q336.67-31.4 337.96-31.8 339.25-32.2 340.57-32.18L340.57-32.18Q342.11-32.13 343.22-31.58 344.33-31.03 345.09-30.1L345.09-30.1Q345.82-29.17 346.2-27.94 346.58-26.71 346.65-25.29L346.65-25.29 351.14-25.29Q351.22-27.59 350.46-29.53 349.7-31.47 348.34-32.91L348.34-32.91Q346.95-34.33 345.02-35.16 343.09-35.99 340.79-36.04L340.79-36.04Q338.62-36.08 336.47-35.42 334.32-34.77 332.59-33.47L332.59-33.47Q330.83-32.18 329.71-30.32 328.59-28.47 328.44-26.15L328.44-26.15Q328.32-24.02 329.1-22.4 329.88-20.78 331.22-19.56L331.22-19.56Q332.54-18.31 334.25-17.41 335.96-16.5 337.69-15.84L337.69-15.84Q338.84-15.41 340.05-14.87 341.26-14.33 342.21-13.57L342.21-13.57Q343.14-12.79 343.67-11.73 344.21-10.67 344.04-9.18ZM365.3 0.49L365.3 0.49Q368.38 0.54 371.27-0.74 374.16-2.03 375.97-4.57L375.97-4.57 373.43-6.71Q371.87-5.1 369.93-4.13 367.99-3.15 365.69-3.22L365.69-3.22Q363.91-3.27 362.62-4.03 361.32-4.79 360.54-6.01L360.54-6.01Q359.76-7.23 359.45-8.76 359.15-10.3 359.35-11.91L359.35-11.91 377.53-11.91 377.85-13.94Q378.17-16.38 377.8-18.69 377.44-21 376.34-22.8L376.34-22.8Q375.24-24.61 373.36-25.72 371.48-26.83 368.74-26.9L368.74-26.9Q366.86-26.95 365.17-26.44 363.47-25.93 362.03-25L362.03-25Q360.57-24.05 359.38-22.75 358.2-21.46 357.32-19.92L357.32-19.92Q356.42-18.38 355.85-16.69 355.29-14.99 355.1-13.26L355.1-13.26 354.97-12.21Q354.76-9.67 355.33-7.4 355.9-5.13 357.22-3.39L357.22-3.39Q358.54-1.66 360.58-0.61 362.62 0.44 365.3 0.49ZM368.52-23.19L368.52-23.19Q369.97-23.14 371.04-22.52 372.11-21.9 372.8-20.9L372.8-20.9Q373.48-19.9 373.72-18.63 373.97-17.36 373.75-16.02L373.75-16.02 373.65-15.58 359.88-15.63Q360.39-17.04 361.18-18.43 361.96-19.82 363.03-20.9L363.03-20.9Q364.08-21.97 365.45-22.62 366.82-23.27 368.52-23.19ZM401.43-7.18L401.43-7.18Q401.26-6.03 400.57-5.25 399.87-4.47 398.89-4.03L398.89-4.03Q397.92-3.56 396.82-3.37 395.72-3.17 394.74-3.2L394.74-3.2Q393.55-3.2 392.5-3.5 391.45-3.81 390.67-4.42L390.67-4.42Q389.88-5 389.42-5.93 388.96-6.86 388.93-8.13L388.93-8.13 384.54-8.15Q384.49-6.03 385.33-4.43 386.17-2.83 387.59-1.76L387.59-1.76Q389.01-0.66 390.82-0.1 392.64 0.46 394.6 0.49L394.6 0.49Q396.45 0.54 398.41 0.09 400.36-0.37 401.97-1.34L401.97-1.34Q403.58-2.29 404.66-3.83 405.73-5.37 405.83-7.5L405.83-7.5Q405.88-8.74 405.51-9.74 405.14-10.74 404.48-11.52L404.48-11.52Q403.82-12.28 402.91-12.85 401.99-13.43 400.97-13.87L400.97-13.87Q399.94-14.31 398.87-14.62 397.79-14.94 396.79-15.19L396.79-15.19Q395.99-15.36 395.02-15.6 394.06-15.84 393.25-16.26L393.25-16.26Q392.45-16.67 391.95-17.37 391.45-18.07 391.59-19.17L391.59-19.17Q391.74-20.26 392.37-21.03 393.01-21.8 393.91-22.29L393.91-22.29Q394.82-22.75 395.85-22.97 396.89-23.19 397.87-23.17L397.87-23.17Q398.89-23.14 399.83-22.85 400.77-22.56 401.51-22L401.51-22Q402.21-21.41 402.63-20.58 403.04-19.75 403.04-18.65L403.04-18.65 407.41-18.63Q407.44-20.65 406.68-22.18 405.92-23.71 404.63-24.76L404.63-24.76Q403.34-25.78 401.62-26.32 399.89-26.86 398.04-26.9L398.04-26.9Q396.45-26.93 394.84-26.56 393.23-26.2 391.69-25.44L391.69-25.44Q389.93-24.58 388.61-22.9 387.3-21.22 387.22-18.99L387.22-18.99Q387.15-17.16 387.97-15.88 388.79-14.6 390.1-13.75L390.1-13.75Q391.25-12.99 392.62-12.49 393.99-11.99 395.3-11.65L395.3-11.65Q396.11-11.45 397-11.23 397.89-11.01 398.8-10.64L398.8-10.64Q399.36-10.42 399.86-10.13 400.36-9.84 400.75-9.45L400.75-9.45Q401.14-9.03 401.33-8.47 401.53-7.91 401.43-7.18ZM430.78-7.18L430.78-7.18Q430.6-6.03 429.91-5.25 429.21-4.47 428.24-4.03L428.24-4.03Q427.26-3.56 426.16-3.37 425.06-3.17 424.09-3.2L424.09-3.2Q422.89-3.2 421.84-3.5 420.79-3.81 420.01-4.42L420.01-4.42Q419.23-5 418.76-5.93 418.3-6.86 418.28-8.13L418.28-8.13 413.88-8.15Q413.83-6.03 414.67-4.43 415.52-2.83 416.93-1.76L416.93-1.76Q418.35-0.66 420.17-0.1 421.99 0.46 423.94 0.49L423.94 0.49Q425.8 0.54 427.75 0.09 429.7-0.37 431.31-1.34L431.31-1.34Q432.92-2.29 434-3.83 435.07-5.37 435.17-7.5L435.17-7.5Q435.22-8.74 434.85-9.74 434.49-10.74 433.83-11.52L433.83-11.52Q433.17-12.28 432.25-12.85 431.34-13.43 430.31-13.87L430.31-13.87Q429.29-14.31 428.21-14.62 427.14-14.94 426.14-15.19L426.14-15.19Q425.33-15.36 424.37-15.6 423.4-15.84 422.6-16.26L422.6-16.26Q421.79-16.67 421.29-17.37 420.79-18.07 420.94-19.17L420.94-19.17Q421.08-20.26 421.72-21.03 422.35-21.8 423.26-22.29L423.26-22.29Q424.16-22.75 425.2-22.97 426.23-23.19 427.21-23.17L427.21-23.17Q428.24-23.14 429.18-22.85 430.12-22.56 430.85-22L430.85-22Q431.56-21.41 431.97-20.58 432.39-19.75 432.39-18.65L432.39-18.65 436.76-18.63Q436.78-20.65 436.02-22.18 435.27-23.71 433.97-24.76L433.97-24.76Q432.68-25.78 430.96-26.32 429.24-26.86 427.38-26.9L427.38-26.9Q425.8-26.93 424.18-26.56 422.57-26.2 421.03-25.44L421.03-25.44Q419.28-24.58 417.96-22.9 416.64-21.22 416.57-18.99L416.57-18.99Q416.49-17.16 417.31-15.88 418.13-14.6 419.45-13.75L419.45-13.75Q420.59-12.99 421.96-12.49 423.33-11.99 424.65-11.65L424.65-11.65Q425.45-11.45 426.34-11.23 427.24-11.01 428.14-10.64L428.14-10.64Q428.7-10.42 429.2-10.13 429.7-9.84 430.09-9.45L430.09-9.45Q430.48-9.03 430.68-8.47 430.87-7.91 430.78-7.18ZM460.12-26.42L446.98-26.42 446.3-22.49 455.02-22.49 451.79-3.91 443.1-3.91 442.39 0 463.88 0 464.59-3.91 456.21-3.91 460.12-26.42ZM456.33-33.28L456.33-33.28Q456.33-32.1 457.08-31.41 457.82-30.71 458.97-30.76L458.97-30.76Q460.14-30.81 460.88-31.53 461.61-32.25 461.61-33.42L461.61-33.42Q461.61-34.62 460.88-35.35 460.14-36.08 459-36.04L459-36.04Q457.82-35.99 457.09-35.22 456.36-34.45 456.33-33.28ZM472.18-13.28L472.18-13.28 472.1-12.74Q471.91-10.94 472.09-9.2 472.27-7.47 472.86-5.93L472.86-5.93Q473.25-4.88 473.85-3.93 474.45-2.98 475.2-2.15L475.2-2.15Q476.4-0.98 478.06-0.27 479.72 0.44 481.84 0.49L481.84 0.49Q484.73 0.56 487.08-0.54 489.44-1.64 491.17-3.52L491.17-3.52Q492.9-5.37 493.99-7.84 495.08-10.3 495.42-12.96L495.42-12.96 495.47-13.53Q495.66-15.28 495.49-17.02 495.32-18.75 494.78-20.29L494.78-20.29Q494.34-21.56 493.62-22.66 492.9-23.75 492-24.58L492-24.58Q490.9-25.61 489.3-26.23 487.7-26.86 485.73-26.9L485.73-26.9Q482.89-26.98 480.61-25.92 478.33-24.85 476.62-23.12L476.62-23.12Q474.76-21.22 473.64-18.64 472.52-16.06 472.18-13.28ZM476.52-12.74L476.52-12.74 476.6-13.28Q476.84-15.04 477.5-16.83 478.16-18.63 479.26-20.07L479.26-20.07Q480.36-21.51 481.92-22.4 483.48-23.29 485.53-23.22L485.53-23.22Q487.44-23.14 488.61-22.2 489.78-21.26 490.39-19.85L490.39-19.85Q491-18.41 491.11-16.72 491.22-15.04 491.05-13.5L491.05-13.5 491-12.96Q490.88-11.57 490.15-9.62 489.41-7.67 488.31-6.25L488.31-6.25Q487.19-4.83 485.63-3.96 484.07-3.08 482.04-3.15L482.04-3.15Q480.33-3.22 479.16-4 477.99-4.79 477.4-5.98L477.4-5.98Q476.67-7.47 476.5-9.28 476.33-11.08 476.52-12.74ZM504.99-26.42L500.4 0 504.82 0 508.11-18.97Q508.77-19.85 509.56-20.62 510.36-21.39 511.26-21.95L511.26-21.95Q512.16-22.49 513.2-22.79 514.24-23.1 515.39-23.07L515.39-23.07Q516.85-23.05 517.8-22.55 518.76-22.05 519.29-21.19L519.29-21.19Q519.81-20.34 519.94-19.19 520.07-18.04 519.93-16.7L519.93-16.7 517.12 0 521.54 0 524.3-16.5Q524.59-18.51 524.27-20.47 523.96-22.44 523.08-23.83L523.08-23.83Q522.17-25.2 520.66-26.03 519.15-26.86 516.93-26.9L516.93-26.9Q515.61-26.93 514.41-26.62 513.21-26.32 512.14-25.73L512.14-25.73Q511.07-25.15 510.11-24.32 509.16-23.49 508.36-22.51L508.36-22.51 508.92-26.44 504.99-26.42ZM572.51-17.82L570-35.55 564.65-35.55 558.47 0 562.77 0 565.19-13.96 567.41-28.74 570.02-9.89 572.58-9.89 582.08-28.61 579.25-14.4 576.76 0 581.06 0 587.21-35.55 581.64-35.55 572.51-17.82ZM605.52 0L605.52 0 609.98 0 610.03-0.42Q609.72-1.73 609.73-3.08 609.74-4.42 609.96-5.76L609.96-5.76 612.01-18.04Q612.23-20.17 611.6-21.8 610.96-23.44 609.74-24.58L609.74-24.58Q608.49-25.71 606.76-26.29 605.03-26.88 603.03-26.93L603.03-26.93Q601.22-26.95 599.34-26.48 597.46-26 595.9-25.02L595.9-25.02Q594.31-24.05 593.24-22.57 592.16-21.09 591.94-19.09L591.94-19.09 596.36-19.12Q596.61-20.21 597.22-21.01 597.83-21.8 598.68-22.31L598.68-22.31Q599.51-22.83 600.52-23.07 601.54-23.32 602.59-23.29L602.59-23.29Q603.78-23.27 604.77-22.92 605.76-22.58 606.44-21.92L606.44-21.92Q607.13-21.26 607.46-20.31 607.79-19.36 607.64-18.12L607.64-18.12 607.32-16.02 602.29-16.04Q600.83-16.04 599.33-15.86 597.83-15.67 596.43-15.26L596.43-15.26Q595.02-14.82 593.77-14.14 592.53-13.45 591.58-12.48L591.58-12.48Q590.62-11.47 590.03-10.16 589.43-8.84 589.33-7.13L589.33-7.13Q589.23-5.37 589.83-3.98 590.43-2.59 591.53-1.61L591.53-1.61Q592.6-0.63 594.08-0.1 595.56 0.44 597.22 0.46L597.22 0.46Q598.78 0.49 600.21 0.09 601.63-0.32 602.9-1.05L602.9-1.05Q603.56-1.44 604.19-1.9 604.81-2.37 605.39-2.88L605.39-2.88Q605.32-2.15 605.32-1.44 605.32-0.73 605.52 0ZM598.07-3.42L598.07-3.42Q597.07-3.44 596.24-3.74 595.41-4.03 594.82-4.59L594.82-4.59Q594.24-5.13 593.97-5.93 593.7-6.74 593.82-7.79L593.82-7.79Q593.92-8.69 594.27-9.39 594.63-10.08 595.14-10.62L595.14-10.62Q595.58-11.06 596.12-11.39 596.65-11.72 597.26-11.96L597.26-11.96Q598.61-12.5 600.13-12.67 601.66-12.84 603-12.84L603-12.84 606.79-12.82 605.83-7.45Q605.17-6.54 604.33-5.8 603.49-5.05 602.54-4.52L602.54-4.52Q601.54-3.98 600.4-3.69 599.27-3.39 598.07-3.42ZM622.36-26.42L617.77 0 622.19 0 625.48-18.97Q626.14-19.85 626.94-20.62 627.73-21.39 628.63-21.95L628.63-21.95Q629.54-22.49 630.57-22.79 631.61-23.1 632.76-23.07L632.76-23.07Q634.22-23.05 635.18-22.55 636.13-22.05 636.67-21.19L636.67-21.19Q637.18-20.34 637.31-19.19 637.45-18.04 637.3-16.7L637.3-16.7 634.49 0 638.91 0 641.67-16.5Q641.96-18.51 641.65-20.47 641.33-22.44 640.45-23.83L640.45-23.83Q639.55-25.2 638.03-26.03 636.52-26.86 634.3-26.9L634.3-26.9Q632.98-26.93 631.78-26.62 630.59-26.32 629.51-25.73L629.51-25.73Q628.44-25.15 627.49-24.32 626.53-23.49 625.73-22.51L625.73-22.51 626.29-26.44 622.36-26.42ZM664.2 0L664.2 0 668.67 0 668.72-0.42Q668.4-1.73 668.41-3.08 668.43-4.42 668.65-5.76L668.65-5.76 670.7-18.04Q670.92-20.17 670.28-21.8 669.65-23.44 668.43-24.58L668.43-24.58Q667.18-25.71 665.45-26.29 663.71-26.88 661.71-26.93L661.71-26.93Q659.91-26.95 658.03-26.48 656.15-26 654.58-25.02L654.58-25.02Q653-24.05 651.92-22.57 650.85-21.09 650.63-19.09L650.63-19.09 655.05-19.12Q655.29-20.21 655.9-21.01 656.51-21.8 657.37-22.31L657.37-22.31Q658.2-22.83 659.21-23.07 660.22-23.32 661.27-23.29L661.27-23.29Q662.47-23.27 663.46-22.92 664.45-22.58 665.13-21.92L665.13-21.92Q665.81-21.26 666.14-20.31 666.47-19.36 666.33-18.12L666.33-18.12 666.01-16.02 660.98-16.04Q659.52-16.04 658.01-15.86 656.51-15.67 655.12-15.26L655.12-15.26Q653.7-14.82 652.46-14.14 651.21-13.45 650.26-12.48L650.26-12.48Q649.31-11.47 648.71-10.16 648.11-8.84 648.02-7.13L648.02-7.13Q647.92-5.37 648.52-3.98 649.11-2.59 650.21-1.61L650.21-1.61Q651.29-0.63 652.76-0.1 654.24 0.44 655.9 0.46L655.9 0.46Q657.46 0.49 658.89 0.09 660.32-0.32 661.59-1.05L661.59-1.05Q662.25-1.44 662.87-1.9 663.49-2.37 664.08-2.88L664.08-2.88Q664.01-2.15 664.01-1.44 664.01-0.73 664.2 0ZM656.76-3.42L656.76-3.42Q655.76-3.44 654.93-3.74 654.1-4.03 653.51-4.59L653.51-4.59Q652.92-5.13 652.65-5.93 652.39-6.74 652.51-7.79L652.51-7.79Q652.61-8.69 652.96-9.39 653.31-10.08 653.83-10.62L653.83-10.62Q654.27-11.06 654.8-11.39 655.34-11.72 655.95-11.96L655.95-11.96Q657.29-12.5 658.82-12.67 660.35-12.84 661.69-12.84L661.69-12.84 665.47-12.82 664.52-7.45Q663.86-6.54 663.02-5.8 662.18-5.05 661.22-4.52L661.22-4.52Q660.22-3.98 659.09-3.69 657.95-3.39 656.76-3.42ZM677.99-13.26L677.99-13.26 677.95-12.74Q677.77-11.3 677.85-9.78 677.92-8.25 678.26-6.81L678.26-6.81Q678.58-5.35 679.2-4.04 679.83-2.73 680.8-1.76L680.8-1.76Q681.75-0.76 683.08-0.16 684.42 0.44 686.15 0.49L686.15 0.49Q687.52 0.51 688.75 0.22 689.98-0.07 691.06-0.68L691.06-0.68Q691.74-1.05 692.36-1.54 692.98-2.03 693.57-2.61L693.57-2.61 693.08-0.29Q692.76 1.29 692.07 2.61 691.37 3.93 690.35 4.86L690.35 4.86Q689.3 5.79 687.92 6.29 686.54 6.79 684.85 6.74L684.85 6.74Q682.8 6.69 681.23 5.71 679.65 4.74 678.51 3.1L678.51 3.1 675.99 5.81Q677.51 8.01 679.94 9.19 682.36 10.38 685 10.42L685 10.42Q687.56 10.5 689.7 9.7 691.84 8.91 693.47 7.45L693.47 7.45Q695.08 6.01 696.12 3.96 697.16 1.9 697.5-0.56L697.5-0.56 701.9-26.42 697.84-26.42 696.99-23.51Q696.55-24.17 696-24.69 695.45-25.22 694.84-25.61L694.84-25.61Q693.86-26.27 692.68-26.59 691.5-26.9 690.2-26.93L690.2-26.93Q688.3-26.98 686.72-26.44 685.15-25.9 683.85-24.93L683.85-24.93Q682.56-23.95 681.57-22.63 680.58-21.31 679.85-19.78L679.85-19.78Q679.12-18.24 678.67-16.56 678.21-14.89 677.99-13.26ZM682.34-12.74L682.34-12.74 682.41-13.26Q682.66-15.01 683.27-16.78 683.88-18.55 684.93-20L684.93-20Q685.95-21.41 687.47-22.29 688.98-23.17 691.03-23.1L691.03-23.1Q692.11-23.07 692.98-22.74 693.86-22.41 694.55-21.85L694.55-21.85Q695.08-21.39 695.51-20.75 695.94-20.12 696.23-19.36L696.23-19.36 694.16-7.18Q693.52-6.27 692.78-5.53 692.03-4.79 691.18-4.27L691.18-4.27Q690.4-3.81 689.47-3.55 688.54-3.3 687.49-3.32L687.49-3.32Q686.22-3.37 685.33-3.81 684.44-4.25 683.83-4.98L683.83-4.98Q683.22-5.69 682.86-6.63 682.51-7.57 682.36-8.59L682.36-8.59Q682.22-9.62 682.22-10.69 682.22-11.77 682.34-12.74ZM717.42 0.49L717.42 0.49Q720.5 0.54 723.39-0.74 726.28-2.03 728.09-4.57L728.09-4.57 725.55-6.71Q723.99-5.1 722.05-4.13 720.11-3.15 717.81-3.22L717.81-3.22Q716.03-3.27 714.73-4.03 713.44-4.79 712.66-6.01L712.66-6.01Q711.88-7.23 711.57-8.76 711.27-10.3 711.46-11.91L711.46-11.91 729.65-11.91 729.97-13.94Q730.29-16.38 729.92-18.69 729.55-21 728.46-22.8L728.46-22.8Q727.36-24.61 725.48-25.72 723.6-26.83 720.86-26.9L720.86-26.9Q718.98-26.95 717.29-26.44 715.59-25.93 714.15-25L714.15-25Q712.68-24.05 711.5-22.75 710.32-21.46 709.44-19.92L709.44-19.92Q708.53-18.38 707.97-16.69 707.41-14.99 707.22-13.26L707.22-13.26 707.09-12.21Q706.87-9.67 707.45-7.4 708.02-5.13 709.34-3.39L709.34-3.39Q710.66-1.66 712.7-0.61 714.73 0.44 717.42 0.49ZM720.64-23.19L720.64-23.19Q722.08-23.14 723.16-22.52 724.23-21.9 724.92-20.9L724.92-20.9Q725.6-19.9 725.84-18.63 726.09-17.36 725.87-16.02L725.87-16.02 725.77-15.58 712-15.63Q712.51-17.04 713.29-18.43 714.08-19.82 715.15-20.9L715.15-20.9Q716.2-21.97 717.57-22.62 718.93-23.27 720.64-23.19ZM741.25-23.93L741.73-26.44 737.8-26.42 733.24 0 737.44 0 741.08-21.04Q741.37-21.51 741.72-21.89 742.08-22.27 742.47-22.51L742.47-22.51Q742.91-22.8 743.46-22.95 744-23.1 744.64-23.07L744.64-23.07Q745.37-23.05 745.84-22.78 746.3-22.51 746.57-22.07L746.57-22.07Q746.81-21.63 746.87-21.06 746.93-20.48 746.86-19.82L746.86-19.82 743.52 0 747.72 0 751.18-20.36Q751.33-20.92 751.62-21.39 751.92-21.85 752.31-22.19L752.31-22.19Q752.79-22.63 753.43-22.86 754.06-23.1 754.8-23.1L754.8-23.1Q755.55-23.1 756.05-22.84 756.55-22.58 756.82-22.14L756.82-22.14Q757.07-21.68 757.14-21.08 757.21-20.48 757.14-19.8L757.14-19.8 753.82 0 758.02 0 761.31-19.73Q761.44-21.07 761.25-22.35 761.07-23.63 760.51-24.66L760.51-24.66Q759.92-25.66 758.9-26.27 757.87-26.88 756.33-26.9L756.33-26.9Q754.62-26.9 753.33-26.14 752.04-25.37 751.01-24.1L751.01-24.1Q750.79-24.83 750.36-25.37 749.94-25.9 749.38-26.25L749.38-26.25Q748.79-26.59 748.11-26.75 747.42-26.9 746.67-26.9L746.67-26.9Q744.91-26.93 743.59-26.12 742.27-25.32 741.25-23.93L741.25-23.93ZM776.11 0.49L776.11 0.49Q779.18 0.54 782.08-0.74 784.97-2.03 786.78-4.57L786.78-4.57 784.24-6.71Q782.67-5.1 780.73-4.13 778.79-3.15 776.5-3.22L776.5-3.22Q774.72-3.27 773.42-4.03 772.13-4.79 771.35-6.01L771.35-6.01Q770.56-7.23 770.26-8.76 769.95-10.3 770.15-11.91L770.15-11.91 788.34-11.91 788.66-13.94Q788.97-16.38 788.61-18.69 788.24-21 787.14-22.8L787.14-22.8Q786.04-24.61 784.16-25.72 782.28-26.83 779.55-26.9L779.55-26.9Q777.67-26.95 775.97-26.44 774.28-25.93 772.84-25L772.84-25Q771.37-24.05 770.19-22.75 769-21.46 768.12-19.92L768.12-19.92Q767.22-18.38 766.66-16.69 766.1-14.99 765.9-13.26L765.9-13.26 765.78-12.21Q765.56-9.67 766.13-7.4 766.71-5.13 768.03-3.39L768.03-3.39Q769.34-1.66 771.38-0.61 773.42 0.44 776.11 0.49ZM779.33-23.19L779.33-23.19Q780.77-23.14 781.84-22.52 782.92-21.9 783.6-20.9L783.6-20.9Q784.29-19.9 784.53-18.63 784.77-17.36 784.55-16.02L784.55-16.02 784.46-15.58 770.69-15.63Q771.2-17.04 771.98-18.43 772.76-19.82 773.84-20.9L773.84-20.9Q774.89-21.97 776.25-22.62 777.62-23.27 779.33-23.19ZM798.42-26.42L793.83 0 798.25 0 801.54-18.97Q802.2-19.85 803-20.62 803.79-21.39 804.69-21.95L804.69-21.95Q805.6-22.49 806.63-22.79 807.67-23.1 808.82-23.07L808.82-23.07Q810.28-23.05 811.24-22.55 812.19-22.05 812.73-21.19L812.73-21.19Q813.24-20.34 813.37-19.19 813.51-18.04 813.36-16.7L813.36-16.7 810.55 0 814.97 0 817.73-16.5Q818.02-18.51 817.71-20.47 817.39-22.44 816.51-23.83L816.51-23.83Q815.61-25.2 814.09-26.03 812.58-26.86 810.36-26.9L810.36-26.9Q809.04-26.93 807.84-26.62 806.65-26.32 805.57-25.73L805.57-25.73Q804.5-25.15 803.55-24.32 802.59-23.49 801.79-22.51L801.79-22.51 802.35-26.44 798.42-26.42ZM838.16-26.42L839.29-32.81 834.84-32.81 833.72-26.42 827.01-26.42 826.39-22.92 833.13-22.92 830.74-8.57Q830.57-6.76 830.87-5.14 831.18-3.52 832.01-2.29L832.01-2.29Q832.84-1.05 834.21-0.31 835.57 0.44 837.55 0.46L837.55 0.46Q839.29 0.51 841.17 0.24 843.05-0.02 844.58-0.88L844.58-0.88 844.17-4.13Q842.85-3.83 841.52-3.59 840.19-3.34 838.85-3.39L838.85-3.39Q837.67-3.42 836.91-3.83 836.14-4.25 835.72-4.93L835.72-4.93Q835.31-5.62 835.17-6.54 835.04-7.47 835.16-8.54L835.16-8.54 837.55-22.92 847.32-22.92 847.93-26.42 838.16-26.42ZM901.56-9.18L901.56-9.18Q901.39-7.71 900.66-6.6 899.92-5.49 898.83-4.76L898.83-4.76Q897.73-4.03 896.38-3.67 895.04-3.32 893.67-3.34L893.67-3.34Q892.11-3.37 890.88-3.89 889.65-4.42 888.79-5.32L888.79-5.32Q887.91-6.23 887.41-7.48 886.91-8.74 886.84-10.28L886.84-10.28 882.37-10.28Q882.32-7.89 883.18-5.91 884.03-3.93 885.57-2.54L885.57-2.54Q887.08-1.12 889.12-0.33 891.16 0.46 893.5 0.49L893.5 0.49Q895.7 0.54 897.9-0.07 900.1-0.68 901.88-1.93L901.88-1.93Q903.66-3.15 904.83-4.99 906-6.84 906.17-9.23L906.17-9.23Q906.32-11.43 905.55-13.12 904.78-14.82 903.44-16.11L903.44-16.11Q902.1-17.41 900.35-18.35 898.61-19.29 896.8-19.95L896.8-19.95Q895.7-20.34 894.54-20.85 893.38-21.36 892.45-22.09L892.45-22.09Q891.5-22.8 890.95-23.8 890.4-24.8 890.55-26.22L890.55-26.22Q890.7-27.64 891.39-28.75 892.09-29.86 893.14-30.64L893.14-30.64Q894.19-31.4 895.48-31.8 896.78-32.2 898.09-32.18L898.09-32.18Q899.63-32.13 900.74-31.58 901.85-31.03 902.61-30.1L902.61-30.1Q903.34-29.17 903.72-27.94 904.1-26.71 904.17-25.29L904.17-25.29 908.67-25.29Q908.74-27.59 907.98-29.53 907.22-31.47 905.86-32.91L905.86-32.91Q904.47-34.33 902.54-35.16 900.61-35.99 898.31-36.04L898.31-36.04Q896.14-36.08 893.99-35.42 891.84-34.77 890.11-33.47L890.11-33.47Q888.35-32.18 887.23-30.32 886.11-28.47 885.96-26.15L885.96-26.15Q885.84-24.02 886.62-22.4 887.4-20.78 888.74-19.56L888.74-19.56Q890.06-18.31 891.77-17.41 893.48-16.5 895.21-15.84L895.21-15.84Q896.36-15.41 897.57-14.87 898.78-14.33 899.73-13.57L899.73-13.57Q900.66-12.79 901.19-11.73 901.73-10.67 901.56-9.18ZM922.82 0.49L922.82 0.49Q925.9 0.54 928.79-0.74 931.69-2.03 933.49-4.57L933.49-4.57 930.95-6.71Q929.39-5.1 927.45-4.13 925.51-3.15 923.21-3.22L923.21-3.22Q921.43-3.27 920.14-4.03 918.84-4.79 918.06-6.01L918.06-6.01Q917.28-7.23 916.98-8.76 916.67-10.3 916.87-11.91L916.87-11.91 935.05-11.91 935.37-13.94Q935.69-16.38 935.32-18.69 934.96-21 933.86-22.8L933.86-22.8Q932.76-24.61 930.88-25.72 929-26.83 926.27-26.9L926.27-26.9Q924.39-26.95 922.69-26.44 920.99-25.93 919.55-25L919.55-25Q918.09-24.05 916.9-22.75 915.72-21.46 914.84-19.92L914.84-19.92Q913.94-18.38 913.37-16.69 912.81-14.99 912.62-13.26L912.62-13.26 912.5-12.21Q912.28-9.67 912.85-7.4 913.42-5.13 914.74-3.39L914.74-3.39Q916.06-1.66 918.1-0.61 920.14 0.44 922.82 0.49ZM926.05-23.19L926.05-23.19Q927.49-23.14 928.56-22.52 929.63-21.9 930.32-20.9L930.32-20.9Q931-19.9 931.25-18.63 931.49-17.36 931.27-16.02L931.27-16.02 931.17-15.58 917.4-15.63Q917.92-17.04 918.7-18.43 919.48-19.82 920.55-20.9L920.55-20.9Q921.6-21.97 922.97-22.62 924.34-23.27 926.05-23.19ZM961.71-26.95L961.71-26.95Q960.25-26.95 958.94-26.62 957.63-26.29 956.46-25.68L956.46-25.68Q955.29-25.05 954.24-24.17 953.19-23.29 952.26-22.22L952.26-22.22 952.41-23 953-26.42 948.8-26.42 944.23 0 948.65 0 951.58-16.97Q952.39-18.43 953.42-19.56 954.46-20.68 955.73-21.36L955.73-21.36Q956.73-21.92 957.94-22.2 959.15-22.49 960.52-22.49L960.52-22.49Q961.71-22.46 962.88-22.29 964.06-22.12 965.23-21.85L965.23-21.85 966.35-26.25Q965.23-26.66 964.06-26.79 962.88-26.93 961.71-26.95ZM972.57-26.42L978.97 0 982.34 0 996.94-26.42 992.25-26.42 981.95-6.52 981.24-4.83 981.12-6.49 976.82-26.44 972.57-26.42ZM1017.64-26.42L1004.5-26.42 1003.82-22.49 1012.54-22.49 1009.31-3.91 1000.62-3.91 999.91 0 1021.4 0 1022.11-3.91 1013.73-3.91 1017.64-26.42ZM1013.86-33.28L1013.86-33.28Q1013.86-32.1 1014.6-31.41 1015.34-30.71 1016.49-30.76L1016.49-30.76Q1017.66-30.81 1018.4-31.53 1019.13-32.25 1019.13-33.42L1019.13-33.42Q1019.13-34.62 1018.4-35.35 1017.66-36.08 1016.52-36.04L1016.52-36.04Q1015.34-35.99 1014.61-35.22 1013.88-34.45 1013.86-33.28ZM1040.02-3.15L1040.02-3.15Q1038.73-3.17 1037.79-3.61 1036.85-4.05 1036.19-4.76L1036.19-4.76Q1035.53-5.44 1035.14-6.38 1034.75-7.32 1034.58-8.37L1034.58-8.37Q1034.39-9.4 1034.39-10.5 1034.39-11.6 1034.51-12.65L1034.51-12.65 1034.63-13.67Q1034.8-14.87 1035.15-16.05 1035.51-17.24 1036.05-18.29L1036.05-18.29Q1036.56-19.34 1037.27-20.24 1037.97-21.14 1038.88-21.8L1038.88-21.8Q1039.83-22.51 1040.99-22.89 1042.15-23.27 1043.54-23.22L1043.54-23.22Q1044.81-23.17 1045.81-22.71 1046.81-22.24 1047.52-21.46L1047.52-21.46Q1048.2-20.65 1048.55-19.6 1048.89-18.55 1048.84-17.33L1048.84-17.33 1052.99-17.31Q1053.09-19.38 1052.43-21.13 1051.77-22.88 1050.55-24.15L1050.55-24.15Q1049.3-25.39 1047.57-26.12 1045.84-26.86 1043.78-26.9L1043.78-26.9Q1040.95-26.98 1038.6-25.94 1036.24-24.9 1034.53-23.12L1034.53-23.12Q1032.8-21.24 1031.69-18.8 1030.58-16.36 1030.23-13.67L1030.23-13.67 1030.11-12.62Q1029.99-11.25 1030.05-9.92 1030.11-8.59 1030.38-7.37L1030.38-7.37Q1030.77-5.74 1031.57-4.31 1032.36-2.88 1033.46-1.83L1033.46-1.83Q1034.63-0.78 1036.22-0.16 1037.8 0.46 1039.83 0.51L1039.83 0.51Q1041.76 0.56 1043.71-0.06 1045.66-0.68 1047.28-1.86L1047.28-1.86Q1048.89-3 1049.99-4.65 1051.08-6.3 1051.3-8.33L1051.3-8.33 1047.13-8.3Q1046.86-7.1 1046.18-6.14 1045.49-5.18 1044.54-4.52L1044.54-4.52Q1043.56-3.83 1042.39-3.48 1041.22-3.13 1040.02-3.15ZM1069.54 0.49L1069.54 0.49Q1072.62 0.54 1075.51-0.74 1078.4-2.03 1080.21-4.57L1080.21-4.57 1077.67-6.71Q1076.11-5.1 1074.17-4.13 1072.22-3.15 1069.93-3.22L1069.93-3.22Q1068.15-3.27 1066.85-4.03 1065.56-4.79 1064.78-6.01L1064.78-6.01Q1064-7.23 1063.69-8.76 1063.39-10.3 1063.58-11.91L1063.58-11.91 1081.77-11.91 1082.09-13.94Q1082.41-16.38 1082.04-18.69 1081.67-21 1080.57-22.8L1080.57-22.8Q1079.48-24.61 1077.6-25.72 1075.72-26.83 1072.98-26.9L1072.98-26.9Q1071.1-26.95 1069.4-26.44 1067.71-25.93 1066.27-25L1066.27-25Q1064.8-24.05 1063.62-22.75 1062.43-21.46 1061.56-19.92L1061.56-19.92Q1060.65-18.38 1060.09-16.69 1059.53-14.99 1059.33-13.26L1059.33-13.26 1059.21-12.21Q1058.99-9.67 1059.57-7.4 1060.14-5.13 1061.46-3.39L1061.46-3.39Q1062.78-1.66 1064.81-0.61 1066.85 0.44 1069.54 0.49ZM1072.76-23.19L1072.76-23.19Q1074.2-23.14 1075.28-22.52 1076.35-21.9 1077.03-20.9L1077.03-20.9Q1077.72-19.9 1077.96-18.63 1078.21-17.36 1077.99-16.02L1077.99-16.02 1077.89-15.58 1064.12-15.63Q1064.63-17.04 1065.41-18.43 1066.19-19.82 1067.27-20.9L1067.27-20.9Q1068.32-21.97 1069.69-22.62 1071.05-23.27 1072.76-23.19Z" opacity="1" transform="matrix(1,0,0,1,0,0)" fill="#030303" class="slogan-text-1" data-fill-palette-color="secondary" id="text-1"></path></svg></g></svg></g></svg></g></svg></g><g transform="matrix(1,0,0,1,0,39.71184269281926)"><svg viewBox="0 0 244.43135999999998 69.83753142857142" height="69.83753142857142" width="244.43135999999998"><g><svg xmlns="http://www.w3.org/2000/svg" xmlns:xlink="http://www.w3.org/1999/xlink" version="1.1" x="0" y="0" viewBox="3 7 14 4" enable-background="new 0 0 20 18" xml:space="preserve" height="69.83753142857142" width="244.43135999999998" class="icon-icon-0" data-fill-palette-color="accent" id="icon-0"><rect x="13" y="7" width="4" height="4" fill="#5f3dc4" data-fill-palette-color="accent"></rect><rect x="8" y="7" width="4" height="4" fill="#5f3dc4" data-fill-palette-color="accent"></rect><rect x="3" y="7" width="4" height="4" fill="#5f3dc4" data-fill-palette-color="accent"></rect></svg></g></svg></g></svg></g><defs></defs></svg><rect width="395.52" height="88.69886670150173" fill="none" stroke="none" visibility="hidden"></rect></g></svg></g></svg>