<?xml version="1.0" standalone="no"?>
<!DOCTYPE svg PUBLIC "-//W3C//DTD SVG 20010904//EN"
 "http://www.w3.org/TR/2001/REC-SVG-20010904/DTD/svg10.dtd">
<svg version="1.0" xmlns="http://www.w3.org/2000/svg"
 width="500.000000pt" height="112.000000pt" viewBox="0 0 500.000000 112.000000"
 preserveAspectRatio="xMidYMid meet">
<metadata>
Created by potrace 1.16, written by Peter Selinger 2001-2019
</metadata>
<g transform="translate(0.000000,112.000000) scale(0.100000,-0.100000)"
fill="#000000" stroke="none">
<path d="M3182 1108 c-7 -7 -12 -24 -12 -38 0 -33 17 -50 50 -50 33 0 50 17
50 50 0 14 -5 31 -12 38 -15 15 -61 15 -76 0z"/>
<path d="M4436 1104 c-19 -18 -21 -55 -4 -72 27 -27 98 -4 98 31 0 46 -63 73
-94 41z"/>
<path d="M2574 1096 c-8 -20 3 -36 26 -36 47 0 50 -16 50 -263 0 -128 -4 -238
-9 -245 -4 -7 -21 -16 -37 -21 -16 -4 -29 -14 -29 -22 0 -11 22 -15 108 -17
102 -3 107 -2 107 18 0 14 -7 20 -24 20 -13 0 -29 6 -35 13 -7 9 -12 106 -13
288 l-3 274 -68 3 c-52 2 -69 0 -73 -12z"/>
<path d="M2850 1087 c0 -17 8 -25 33 -32 l32 -10 0 -250 0 -250 -32 -10 c-22
-6 -33 -15 -33 -27 0 -16 11 -18 105 -18 94 0 105 2 105 18 0 12 -11 21 -32
27 l-33 10 -3 283 -2 282 -70 0 c-66 0 -70 -1 -70 -23z"/>
<path d="M2030 1045 c0 -21 5 -25 30 -25 19 0 33 -7 40 -19 13 -25 14 -416 0
-440 -5 -10 -23 -21 -40 -24 -21 -5 -30 -12 -30 -27 0 -19 6 -20 225 -20 l225
0 0 90 c0 88 -1 90 -24 90 -21 0 -24 -5 -28 -52 -7 -71 -20 -78 -145 -78
l-103 0 0 110 0 110 100 0 100 0 0 30 0 31 -100 -7 -100 -7 0 107 0 106 93 0
c114 0 137 -12 137 -71 0 -35 3 -39 25 -39 25 0 25 1 25 80 l0 80 -215 0 -215
0 0 -25z"/>
<path d="M4089 929 c-55 -8 -81 -23 -103 -60 -24 -41 -20 -92 9 -128 25 -29
38 -35 147 -65 67 -19 88 -37 88 -76 0 -58 -95 -91 -174 -60 -22 8 -26 16 -26
50 0 39 -1 40 -35 40 l-35 0 0 -56 c0 -54 1 -55 38 -71 50 -21 147 -28 199
-14 88 24 132 122 82 185 -27 34 -46 44 -133 68 -82 22 -106 40 -106 78 0 40
32 63 88 64 68 1 82 -7 82 -49 0 -35 1 -36 33 -33 31 3 32 4 35 54 2 42 0 53
-15 59 -33 13 -127 21 -174 14z"/>
<path d="M4785 930 c-71 -11 -112 -45 -121 -102 -7 -41 15 -91 49 -112 12 -8
58 -24 102 -36 43 -11 85 -26 92 -32 14 -11 17 -66 5 -84 -21 -32 -111 -45
-166 -24 -22 8 -26 16 -26 50 0 39 -1 40 -35 40 l-35 0 0 -56 c0 -54 1 -55 38
-71 53 -24 196 -24 239 0 39 21 63 63 63 112 0 70 -28 94 -147 125 -88 24
-113 41 -113 80 0 40 32 63 88 64 68 1 82 -7 82 -49 0 -33 2 -35 35 -35 l35 0
0 54 c0 42 -4 55 -17 61 -31 12 -126 21 -168 15z"/>
<path d="M3120 907 c0 -17 8 -25 33 -32 l32 -10 3 -154 c3 -164 -1 -181 -44
-181 -17 0 -24 -6 -24 -20 0 -19 7 -20 105 -20 94 0 105 2 105 18 0 12 -11 21
-32 27 l-33 10 -3 193 -2 192 -70 0 c-66 0 -70 -1 -70 -23z"/>
<path d="M3390 907 c0 -17 8 -25 33 -32 l32 -10 3 -244 c3 -258 0 -271 -44
-271 -17 0 -24 -6 -24 -20 0 -19 7 -20 115 -20 107 0 115 1 115 19 0 16 -8 20
-42 23 l-43 3 -3 98 c-1 53 1 97 6 97 5 0 19 -11 32 -25 49 -52 150 -57 221
-11 57 38 84 103 84 202 0 72 -3 86 -30 129 -38 62 -82 85 -159 85 -63 0 -117
-24 -137 -62 -9 -17 -13 -18 -20 -7 -5 8 -9 26 -9 42 0 27 -1 27 -65 27 -61 0
-65 -1 -65 -23z m359 -43 c13 -9 29 -32 37 -50 20 -49 18 -160 -5 -211 -41
-90 -154 -97 -224 -14 -25 30 -27 39 -27 119 0 95 9 115 65 152 38 25 121 27
154 4z"/>
<path d="M4372 908 c2 -15 13 -25 36 -32 l32 -9 0 -162 c0 -174 0 -175 -51
-175 -12 0 -19 -7 -19 -20 0 -19 7 -20 110 -20 103 0 110 1 110 20 0 14 -7 20
-22 20 -46 0 -47 6 -50 205 l-3 190 -73 3 c-71 3 -73 2 -70 -20z"/>
<path d="M7 813 c-4 -3 -7 -118 -7 -255 l0 -248 260 0 260 0 0 255 0 255 -253
0 c-140 0 -257 -3 -260 -7z"/>
<path d="M660 565 l0 -255 255 0 255 0 0 255 0 255 -255 0 -255 0 0 -255z"/>
<path d="M1320 565 l0 -255 255 0 255 0 0 255 0 255 -255 0 -255 0 0 -255z"/>
<path d="M2047 103 c15 -5 6 -54 -11 -65 -6 -5 -2 -8 10 -8 17 0 20 5 17 23
-3 14 2 31 12 40 15 16 14 17 -12 16 -15 0 -22 -3 -16 -6z"/>
<path d="M2128 93 c-36 -18 -41 -66 -6 -61 16 2 24 12 29 38 4 19 7 35 6 36
-1 0 -14 -6 -29 -13z m12 -33 c0 -11 -7 -20 -15 -20 -15 0 -21 21 -8 33 12 13
23 7 23 -13z"/>
<path d="M2660 84 c-16 -41 -12 -54 15 -54 26 0 35 25 13 33 -10 4 -10 7 0 18
16 18 15 29 -3 29 -9 0 -20 -12 -25 -26z m30 12 c0 -3 -4 -8 -10 -11 -5 -3
-10 -1 -10 4 0 6 5 11 10 11 6 0 10 -2 10 -4z m-10 -46 c0 -5 -4 -10 -10 -10
-5 0 -10 5 -10 10 0 6 5 10 10 10 6 0 10 -4 10 -10z"/>
<path d="M2794 98 c-4 -7 2 -18 14 -26 28 -18 29 -36 2 -29 -11 3 -20 1 -20
-4 0 -5 9 -9 20 -9 27 0 38 30 17 42 -25 13 -21 31 4 23 15 -5 19 -4 15 4 -9
15 -43 14 -52 -1z"/>
<path d="M3347 96 c-9 -24 -8 -67 1 -46 11 24 32 22 33 -2 1 -14 5 -8 10 16
10 44 3 61 -13 31 -11 -19 -11 -19 -18 0 -6 17 -7 17 -13 1z"/>
<path d="M4104 98 c-4 -7 2 -18 14 -26 28 -18 29 -36 2 -29 -11 3 -20 1 -20
-4 0 -13 38 -11 46 3 4 6 -2 19 -15 29 -20 17 -13 38 9 24 6 -3 10 -1 10 4 0
15 -37 14 -46 -1z"/>
<path d="M2324 93 c-17 -6 -4 -63 15 -62 10 0 11 2 4 6 -19 7 -16 41 5 45 14
3 14 5 2 9 -8 3 -20 4 -26 2z"/>
<path d="M2458 95 c-2 -3 -3 -18 0 -35 3 -20 10 -30 21 -29 10 0 11 2 4 6 -16
6 -17 43 -2 43 5 0 7 5 4 10 -7 11 -19 13 -27 5z"/>
<path d="M3978 92 c-8 -18 -2 -56 10 -58 7 -1 8 0 2 3 -14 7 -13 19 5 36 13
13 13 16 0 21 -8 3 -16 2 -17 -2z"/>
<path d="M2174 76 c-9 -23 3 -46 23 -45 17 1 17 2 1 6 -25 6 -22 23 3 23 12 0
19 5 17 13 -7 18 -37 21 -44 3z m33 -2 c-3 -3 -12 -4 -19 -1 -8 3 -5 6 6 6 11
1 17 -2 13 -5z"/>
<path d="M2238 61 c-2 -17 -1 -28 4 -25 4 3 8 14 8 25 0 11 7 19 16 19 12 0
15 -6 10 -26 -5 -17 -3 -23 4 -19 5 3 10 17 10 31 0 19 -5 24 -24 24 -19 0
-25 -6 -28 -29z"/>
<path d="M2397 69 c4 -12 0 -25 -8 -30 -11 -7 -9 -9 7 -9 17 0 20 5 16 30 -2
17 -8 30 -12 30 -5 0 -6 -9 -3 -21z"/>
<path d="M2525 64 c2 -17 -1 -36 -7 -42 -7 -7 -9 -14 -6 -17 3 -3 17 13 32 36
15 22 25 43 23 46 -3 2 -11 -6 -18 -19 l-13 -23 -8 25 c-7 22 -7 21 -3 -6z"/>
<path d="M2867 84 c-4 -4 -7 -18 -7 -31 0 -18 5 -23 23 -22 16 1 18 2 5 6 -25
6 -22 23 3 23 12 0 19 5 17 13 -5 14 -31 21 -41 11z m30 -10 c-3 -3 -12 -4
-19 -1 -8 3 -5 6 6 6 11 1 17 -2 13 -5z"/>
<path d="M2937 83 c-4 -3 1 -15 10 -26 17 -19 17 -20 1 -14 -10 4 -18 2 -18
-3 0 -6 9 -10 20 -10 25 0 26 18 3 37 -17 13 -16 14 5 10 12 -3 20 -1 16 4 -6
11 -28 12 -37 2z"/>
<path d="M3004 79 c-4 -7 1 -16 12 -22 17 -10 17 -11 -1 -18 -19 -7 -18 -8 3
-8 26 -1 30 24 5 34 -17 7 -16 8 2 15 16 7 17 9 3 9 -9 1 -20 -4 -24 -10z"/>
<path d="M3080 80 c12 -8 13 -13 2 -30 -10 -17 -10 -20 6 -20 15 0 18 6 14 30
-3 19 -10 30 -21 30 -14 0 -14 -2 -1 -10z"/>
<path d="M3135 70 c-7 -24 1 -40 20 -40 17 0 34 30 28 48 -7 19 -41 14 -48 -8z
m38 4 c9 -10 -4 -34 -19 -34 -8 0 -14 6 -14 13 0 22 19 35 33 21z"/>
<path d="M3206 74 c-3 -9 -6 -23 -5 -32 1 -10 4 -7 8 7 9 35 29 37 34 4 4 -27
4 -27 6 5 1 25 -3 32 -18 32 -10 0 -22 -7 -25 -16z"/>
<path d="M3435 80 c11 -5 15 -9 8 -9 -7 -1 -10 -8 -7 -16 4 -8 2 -15 -4 -15
-6 0 -13 6 -15 13 -3 7 -6 5 -6 -5 -1 -25 36 -23 44 2 8 25 -1 40 -23 39 -14
0 -13 -2 3 -9z"/>
<path d="M3478 61 c-2 -16 -1 -28 4 -25 4 3 8 14 8 25 0 11 7 19 16 19 13 0
15 -6 9 -27 -5 -21 -4 -25 5 -17 18 18 8 49 -16 52 -17 2 -22 -3 -26 -27z"/>
<path d="M3575 80 c11 -5 15 -9 8 -9 -7 -1 -10 -8 -7 -16 4 -8 1 -15 -5 -15
-6 0 -11 5 -11 11 0 5 -5 7 -10 4 -15 -9 -2 -25 19 -25 11 0 21 9 24 22 7 27
1 38 -21 37 -14 0 -13 -2 3 -9z"/>
<path d="M3620 70 c-12 -23 -6 -40 16 -40 8 0 12 -5 9 -11 -4 -6 -14 -8 -24
-4 -13 5 -14 4 -3 -6 16 -17 38 4 47 49 6 28 4 32 -14 32 -11 0 -25 -9 -31
-20z m40 3 c0 -5 -4 -14 -9 -22 -11 -17 -32 -5 -24 14 5 15 33 21 33 8z"/>
<path d="M3690 76 c-17 -22 -5 -46 22 -45 17 1 18 2 6 6 -25 6 -22 23 3 23 12
0 19 5 17 13 -7 18 -33 20 -48 3z"/>
<path d="M3751 63 c2 -24 2 -25 6 -5 6 32 21 27 17 -5 -2 -17 -1 -20 2 -8 10
35 27 44 20 10 -5 -22 -4 -26 4 -15 20 30 12 50 -20 50 -26 0 -30 -3 -29 -27z"/>
<path d="M3825 70 c-8 -25 1 -40 23 -39 15 1 15 2 0 6 -24 6 -23 23 2 23 11 0
20 7 20 15 0 22 -38 18 -45 -5z"/>
<path d="M3897 83 c-4 -3 -7 -18 -6 -32 l1 -26 7 24 c9 35 29 37 34 4 4 -27 4
-27 6 5 1 25 -3 32 -17 32 -10 0 -22 -3 -25 -7z"/>
<path d="M4172 73 c-13 -25 -4 -43 21 -42 17 1 18 2 5 6 -25 6 -22 23 3 23 12
0 19 5 17 13 -7 19 -36 20 -46 0z m35 1 c-3 -3 -12 -4 -19 -1 -8 3 -5 6 6 6
11 1 17 -2 13 -5z"/>
<path d="M4246 64 c-4 -15 -5 -28 -3 -31 3 -2 7 7 11 21 3 13 14 27 24 29 13
4 12 5 -4 6 -16 1 -24 -7 -28 -25z"/>
<path d="M4312 75 c-1 -11 2 -26 7 -34 7 -11 13 -6 26 20 l16 34 -19 -24 -20
-25 -5 25 c-3 18 -5 19 -5 4z"/>
<path d="M4388 83 c16 -6 15 -18 -4 -37 -14 -15 -13 -16 13 -15 15 0 23 3 17
5 -6 3 -9 16 -6 29 3 20 0 25 -14 24 -11 0 -14 -3 -6 -6z"/>
<path d="M4445 70 c-3 -11 -3 -24 0 -30 8 -12 32 -13 39 -1 4 5 -3 7 -15 4
-17 -5 -20 -2 -17 13 2 11 11 18 21 18 9 -1 17 2 17 7 0 18 -39 8 -45 -11z"/>
<path d="M4514 75 c-9 -23 3 -45 23 -44 17 1 17 2 1 6 -24 6 -23 23 2 23 11 0
20 7 20 15 0 20 -39 20 -46 0z"/>
</g>
</svg>
